{"glyphs":{":":{"x_min":0,"x_max":240,"ha":240,"o":"m 124 327 q 134 327 166 294 q 199 260 199 251 q 199 243 171 214 q 143 185 111 168 q 94 197 77 216 q 47 244 40 251 q 70 282 92 304 q 114 327 124 327 z m 124 92 q 134 92 166 60 q 199 27 199 17 q 199 -17 111 -66 q 96 -40 74 -17 q 51 6 40 17 q 70 48 92 70 q 114 92 124 92 z"},"$":{"x_min":0,"x_max":392,"ha":392,"o":"m 208 -1 l 208 -83 l 168 -82 l 168 -2 q 131 -2 88 14 q 46 29 14 81 l 14 181 q 55 111 98 72 q 140 33 196 33 q 231 33 254 64 q 276 95 276 130 q 276 187 211 231 q 150 266 89 302 q 23 349 23 411 q 23 494 70 528 q 118 562 168 562 l 168 639 l 208 641 l 208 562 q 231 562 282 546 q 334 529 334 451 q 313 486 282 502 q 252 518 202 518 q 168 518 140 502 q 113 486 113 442 q 113 399 202 350 q 292 300 329 270 q 366 241 366 161 q 366 88 322 44 q 277 -1 208 -1 z"},"?":{"x_min":0,"x_max":592,"ha":592,"o":"m 325 662 q 438 662 495 608 q 552 554 552 454 q 552 373 510 324 q 467 274 356 165 q 246 56 246 11 q 246 -21 263 -30 q 280 -38 314 -38 q 340 -38 365 -5 q 390 28 390 67 q 390 75 390 83 q 387 91 386 94 q 396 89 398 70 q 401 52 402 34 q 402 -21 376 -58 q 349 -95 283 -95 q 244 -95 220 -72 q 195 -50 195 -3 q 195 65 258 145 q 317 212 376 279 q 440 358 440 419 q 440 526 385 576 q 330 627 252 627 q 183 627 144 580 q 104 534 104 462 q 104 397 126 347 q 149 297 202 262 q 129 262 86 316 q 43 369 43 440 q 43 530 107 596 q 171 662 325 662 z m 290 -170 q 296 -170 322 -194 q 348 -219 378 -236 q 372 -245 333 -287 q 294 -329 282 -329 q 275 -329 252 -306 q 229 -282 194 -262 q 204 -248 242 -209 q 280 -170 290 -170 z"},"<":{"x_min":0,"x_max":426,"ha":426,"o":"m 258 414 l 325 414 l 170 254 l 170 246 l 325 87 l 258 87 l 95 244 l 95 253 z"},"'":{"x_min":0,"x_max":125,"ha":125,"o":"m 118 639 q 113 615 113 581 q 113 568 113 554 q 113 541 114 528 q 114 502 110 478 q 107 453 98 425 q 89 461 50 516 q 11 572 11 639 q 23 646 38 649 q 53 652 64 652 q 85 652 97 648 q 109 644 118 639 z"},"=":{"x_min":0,"x_max":416,"ha":416,"o":"m 36 133 q 57 175 92 196 q 127 218 210 218 q 223 218 236 218 q 250 217 264 217 q 309 217 333 222 q 357 228 377 238 q 343 184 298 170 q 254 156 185 156 q 117 156 92 154 q 66 151 36 133 z m 26 264 q 53 319 96 334 q 138 349 206 349 l 248 349 q 288 349 314 352 q 341 356 367 370 q 333 315 288 301 q 242 287 171 287 q 99 287 74 282 q 50 278 26 264 z"},"a":{"x_min":0,"x_max":462,"ha":462,"o":"m 383 428 l 383 58 q 384 45 396 45 q 405 45 418 52 q 430 58 458 74 q 445 47 414 21 q 384 -5 356 -5 q 340 -5 314 17 q 289 39 289 76 l 289 130 q 228 69 186 32 q 144 -5 113 -5 q 79 -5 52 35 q 26 75 26 142 q 26 278 101 353 q 176 428 296 428 z m 122 218 q 122 169 138 146 q 154 123 182 123 q 206 123 234 138 q 261 152 289 177 l 289 400 q 214 400 168 344 q 122 289 122 218 z"},"L":{"x_min":0,"x_max":577,"ha":577,"o":"m 255 651 l 689 651 q 578 627 554 605 q 530 583 530 538 l 530 61 q 530 21 588 -62 q 646 -145 743 -209 q 840 -273 959 -273 q 1009 -273 1042 -254 q 1076 -236 1076 -198 q 1076 -168 1052 -150 q 1028 -131 1010 -118 q 1023 -92 1040 -82 q 1057 -73 1085 -73 q 1114 -73 1124 -104 q 1134 -135 1134 -165 q 1134 -228 1094 -263 q 1055 -298 942 -298 q 797 -298 722 -252 q 646 -207 560 -127 q 474 -47 422 -47 l 246 -47 q 180 -47 126 -89 q 98 -115 71 -142 q 117 -45 207 -23 q 275 -16 343 -9 q 405 4 405 84 l 405 531 q 405 575 374 600 q 342 626 288 626 q 159 626 106 573 q 54 520 54 421 q 54 344 102 291 q 149 238 202 238 q 239 238 276 262 q 313 286 333 356 q 333 281 296 250 q 258 218 196 218 q 100 218 52 270 q 4 321 4 404 q 4 529 85 590 q 166 651 255 651 z"},"3":{"x_min":0,"x_max":424,"ha":424,"o":"m 216 428 l 393 428 q 369 347 296 285 q 224 223 198 191 q 225 197 248 197 q 320 197 358 142 q 396 86 396 2 q 396 -72 328 -147 q 260 -222 166 -222 q 77 -222 46 -185 q 14 -148 14 -75 q 46 -118 79 -162 q 121 -197 174 -197 q 241 -197 272 -145 q 302 -93 302 -28 q 302 55 276 106 q 249 156 185 156 q 154 156 110 141 q 137 177 210 244 q 283 311 308 352 l 157 352 q 115 352 98 346 q 81 340 47 324 q 64 377 110 402 q 155 428 216 428 z"},";":{"x_min":0,"x_max":240,"ha":240,"o":"m 135 327 q 146 327 178 294 q 210 261 210 251 q 210 242 185 216 q 160 190 127 171 q 108 203 93 219 q 61 246 54 253 q 103 305 114 316 q 125 327 135 327 z m 124 95 q 176 47 176 -5 q 176 -42 151 -74 q 126 -107 80 -132 q 95 -115 102 -98 q 110 -82 110 -67 q 110 -39 96 -24 q 82 -8 49 20 q 57 40 72 62 q 87 83 124 95 z"},"J":{"x_min":0,"x_max":670,"ha":670,"o":"m 392 651 l 725 651 q 681 633 657 604 q 633 576 633 537 l 633 61 q 633 -21 604 -108 q 576 -196 490 -265 q 404 -334 247 -334 q 110 -334 57 -272 q 4 -211 4 -124 q 4 -65 26 -14 q 47 36 99 36 q 64 25 47 -6 q 30 -36 30 -74 q 30 -171 102 -238 q 174 -305 273 -305 q 392 -305 450 -216 q 507 -128 507 -14 l 507 482 q 507 534 516 556 q 526 579 558 618 l 348 618 q 240 618 198 559 q 155 500 155 419 q 155 343 196 284 q 238 224 308 224 q 363 224 392 255 q 420 286 434 338 q 434 259 392 230 q 351 202 290 202 q 201 202 153 264 q 105 326 105 410 q 105 521 192 586 q 279 651 392 651 z"},"V":{"x_min":0,"x_max":960,"ha":960,"o":"m 303 651 l 554 651 q 503 600 464 499 q 426 398 426 258 q 426 98 474 -24 q 522 -145 603 -145 q 622 -145 670 -102 q 719 -58 760 31 q 801 120 801 250 q 801 341 758 416 q 716 492 654 492 q 643 492 630 481 q 618 470 600 450 q 609 507 650 562 q 691 618 729 618 q 780 618 854 520 q 929 423 929 301 q 929 164 808 -6 q 686 -175 562 -175 q 428 -175 364 -58 q 300 58 300 217 q 300 336 342 435 q 384 534 450 622 l 316 622 q 205 622 129 566 q 53 511 53 418 q 53 349 93 275 q 133 201 236 142 q 135 142 68 208 q 2 273 2 375 q 2 506 94 578 q 185 651 303 651 z"},"\"":{"x_min":0,"x_max":323,"ha":323,"o":"m 290 639 q 285 615 285 581 q 285 568 285 554 q 285 541 286 528 q 286 502 282 478 q 279 453 270 425 q 261 461 222 516 q 183 572 183 639 q 195 646 210 649 q 225 652 236 652 q 257 652 269 648 q 281 644 290 639 z m 122 639 q 117 615 117 581 q 117 568 117 554 q 117 541 118 528 q 118 502 114 478 q 111 453 102 425 q 93 461 54 516 q 15 572 15 639 q 27 646 42 649 q 57 652 68 652 q 89 652 101 648 q 113 644 122 639 z"},"7":{"x_min":0,"x_max":480,"ha":480,"o":"m 169 -22 q 169 -64 192 -98 q 215 -132 267 -163 q 242 -194 225 -212 q 208 -230 197 -230 q 164 -230 122 -170 q 80 -109 80 -46 q 80 46 180 146 q 281 246 373 337 l 102 337 q 62 337 42 330 q 21 323 -20 291 q 0 355 42 392 q 85 428 146 428 l 395 428 q 424 428 452 436 q 480 443 501 454 q 456 351 377 274 q 298 196 231 131 q 169 60 169 -22 z"},"S":{"x_min":0,"x_max":790,"ha":790,"o":"m 279 651 l 610 651 q 610 615 652 537 q 695 459 699 442 q 610 541 526 584 q 443 626 317 626 q 224 626 180 588 q 135 550 135 492 q 135 390 290 353 q 445 316 595 282 q 757 220 757 63 q 757 -61 678 -148 q 599 -234 413 -234 q 307 -234 220 -214 q 132 -194 68 -129 q 4 -64 4 62 q 4 112 15 147 q 26 182 62 202 q 46 184 42 162 q 37 139 37 107 q 37 -13 160 -90 q 282 -166 471 -166 q 589 -166 644 -124 q 698 -82 698 5 q 698 133 540 181 q 393 215 246 249 q 87 304 87 450 q 87 533 144 592 q 201 651 279 651 z"},"}":{"x_min":0,"x_max":350,"ha":350,"o":"m 258 306 l 258 271 q 258 201 268 156 q 279 111 313 111 q 279 111 268 66 q 258 21 258 -54 l 258 -98 q 258 -144 202 -222 q 146 -299 78 -299 q 142 -256 155 -173 q 157 -99 160 -18 q 164 62 208 106 q 167 147 160 262 q 154 376 145 418 q 136 459 64 498 q 145 498 202 426 q 258 355 258 306 z"},"Z":{"x_min":0,"x_max":784,"ha":784,"o":"m 756 663 l 406 358 q 540 358 652 273 q 763 188 763 28 q 763 -25 730 -109 q 696 -193 598 -264 q 500 -334 318 -334 q 173 -334 94 -262 q 16 -189 16 -63 q 16 53 89 120 q 162 188 273 188 q 383 188 446 128 q 508 67 508 -15 q 508 -48 496 -80 q 496 6 416 80 q 336 154 238 154 q 153 154 116 104 q 79 54 79 -22 q 79 -152 150 -225 q 221 -298 334 -298 q 466 -298 549 -196 q 632 -95 632 45 q 632 161 560 232 q 488 303 375 303 q 317 303 257 284 l 562 552 l 218 552 q 169 552 107 530 q 49 505 42 502 q 72 549 141 600 q 210 651 291 651 l 658 651 q 669 650 676 650 q 696 650 714 652 q 733 655 756 663 z"},"x":{"x_min":0,"x_max":491,"ha":491,"o":"m 99 434 q 159 434 194 386 q 228 337 250 271 q 259 287 286 328 q 313 369 313 390 q 313 411 274 429 l 438 429 q 385 409 349 374 q 313 339 263 243 q 285 168 320 105 q 356 42 399 42 q 414 42 427 48 q 440 55 477 75 q 460 35 430 14 q 399 -6 358 -6 q 299 -6 260 40 q 221 85 190 156 q 173 129 150 90 q 126 50 126 38 q 126 29 140 18 q 154 6 174 0 l 13 0 q 53 13 96 62 q 139 111 177 190 q 147 279 116 330 q 86 381 47 381 q 24 381 -24 359 q 21 411 40 422 q 60 434 99 434 z"},")":{"x_min":0,"x_max":230,"ha":230,"o":"m 43 519 q 110 469 157 366 q 204 264 204 153 q 204 53 165 -34 q 126 -122 39 -189 q 74 -145 94 -44 q 113 56 113 173 q 113 284 96 378 q 78 471 43 519 z"},"&":{"x_min":0,"x_max":650,"ha":650,"o":"m 254 662 q 298 662 330 627 q 362 592 362 545 q 362 501 336 464 q 309 427 239 360 q 281 308 381 205 q 481 102 523 67 q 543 97 554 127 q 566 157 566 190 q 566 244 528 296 q 489 347 396 394 q 507 394 556 339 q 604 284 604 200 q 604 157 592 114 q 579 70 560 41 q 627 -21 664 -50 q 700 -78 766 -101 l 716 -101 q 631 -101 586 -76 q 546 -50 516 -32 q 485 -69 426 -102 q 367 -134 272 -134 q 154 -134 90 -76 q 26 -17 26 67 q 26 144 66 210 q 106 277 162 333 q 142 359 122 394 q 102 429 102 478 q 102 546 145 604 q 188 662 254 662 z m 170 528 q 170 499 180 462 q 190 425 222 387 q 247 406 271 445 q 295 484 295 511 q 295 551 282 573 q 268 595 228 595 q 203 595 186 581 q 170 567 170 528 z m 117 165 q 117 59 174 8 q 231 -42 334 -42 q 377 -42 412 -30 q 448 -19 474 9 q 414 49 328 134 q 243 220 182 306 q 161 281 139 241 q 117 201 117 165 z"},"_":{"x_min":0,"x_max":454,"ha":454,"o":"m -2 -40 l 458 -40 l 458 -65 l -2 -65 z"},"v":{"x_min":0,"x_max":472,"ha":472,"o":"m 377 448 q 393 448 424 408 q 455 367 455 318 q 455 293 389 185 q 323 77 288 -9 q 241 64 194 169 q 146 274 126 304 q 106 335 62 335 q 55 335 26 324 q -4 314 -18 305 q 2 338 54 384 q 105 431 129 431 q 174 431 237 294 q 300 156 328 122 q 342 139 358 176 q 373 214 373 253 q 373 292 354 318 q 334 343 293 369 q 304 390 330 419 q 357 448 377 448 z"},"O":{"x_min":0,"x_max":882,"ha":882,"o":"m 450 667 q 651 667 755 567 q 859 467 859 278 q 859 63 750 -50 q 640 -164 442 -164 q 242 -164 138 -62 q 33 41 33 220 q 33 306 65 406 q 97 507 190 587 q 283 667 450 667 z m 158 337 q 158 123 238 -4 q 319 -130 492 -130 q 630 -130 684 -53 q 738 24 738 162 q 738 285 712 388 q 687 491 614 563 q 541 635 411 635 q 297 635 228 568 q 158 500 158 337 z"},"(":{"x_min":0,"x_max":230,"ha":230,"o":"m 188 -188 q 121 -138 74 -36 q 27 67 27 178 q 27 278 66 366 q 105 453 192 520 q 157 476 138 376 q 118 275 118 158 q 118 47 136 -46 q 153 -140 188 -188 z"},"C":{"x_min":0,"x_max":728,"ha":728,"o":"m 378 650 l 626 650 q 634 613 668 553 q 701 493 709 466 q 638 521 567 577 q 479 624 383 624 q 241 624 190 538 q 138 453 138 315 q 138 161 216 14 q 294 -134 441 -134 q 561 -134 618 -88 q 675 -42 712 30 q 712 -63 651 -114 q 590 -165 423 -165 q 247 -165 131 -69 q 15 27 15 219 q 15 418 122 534 q 229 650 378 650 z"},"W":{"x_min":0,"x_max":1134,"ha":1134,"o":"m 270 651 l 529 651 q 505 648 464 636 q 422 625 422 600 q 422 597 424 591 l 613 110 q 625 140 642 186 q 658 233 686 312 q 713 392 725 427 q 685 531 666 571 q 648 611 580 651 l 887 651 q 793 622 793 591 q 793 583 796 574 l 979 110 q 1032 269 1064 368 q 1096 466 1100 485 q 1104 504 1104 517 q 1104 570 1064 602 q 1024 633 965 651 l 1332 651 q 1261 638 1212 596 q 1162 553 1146 514 l 936 -117 l 742 387 l 570 -117 q 565 -101 512 34 q 460 168 420 270 q 381 371 344 466 q 307 561 284 592 q 260 622 226 622 q 163 622 112 572 q 62 523 62 426 q 62 350 102 282 q 143 213 214 213 q 253 213 286 244 q 320 274 320 311 q 320 330 310 347 q 334 329 334 298 q 334 258 296 224 q 258 190 196 190 q 135 190 70 239 q 4 288 4 393 q 4 520 82 586 q 161 651 270 651 z"},"A":{"x_min":0,"x_max":785,"ha":785,"o":"m 998 -231 l 922 -231 q 815 -231 741 -156 q 670 -74 600 7 q 492 113 327 162 q 299 128 252 72 q 205 17 141 -40 q 77 -98 38 -98 q 19 -98 12 -90 q 4 -83 4 -64 q 4 -49 90 4 q 177 56 294 173 q 249 184 209 184 q 167 184 144 176 q 122 169 87 151 q 116 178 154 190 q 191 202 233 202 q 272 202 310 194 q 402 309 470 436 q 538 563 567 667 q 600 515 644 332 q 688 150 775 -10 q 862 -171 998 -231 z m 507 450 q 476 382 436 318 q 395 253 344 186 q 421 167 488 140 q 554 114 600 77 q 578 122 551 229 q 524 336 507 450 z"},"f":{"x_min":0,"x_max":285,"ha":285,"o":"m 283 450 q 263 404 236 387 q 208 370 159 370 l 159 -47 q 159 -198 104 -266 q 50 -334 -22 -334 l -128 -334 q -108 -269 -21 -267 q 66 -265 66 -196 l 66 370 l -3 370 l 50 429 l 67 429 l 67 478 q 67 555 106 611 q 144 667 207 667 l 399 667 q 374 624 334 613 q 295 602 235 602 q 186 602 172 600 q 159 597 159 578 l 159 429 q 273 429 283 450 z"},"Q":{"x_min":0,"x_max":909,"ha":909,"o":"m 441 666 q 640 666 746 564 q 851 461 851 277 q 851 142 801 45 q 746 -27 692 -99 q 705 -123 718 -147 q 754 -202 812 -243 q 869 -284 950 -284 q 1002 -284 1027 -270 q 1052 -256 1082 -216 q 1082 -257 1029 -288 q 976 -318 899 -318 q 795 -318 734 -266 q 672 -215 617 -133 q 589 -147 538 -156 q 486 -166 433 -166 q 223 -166 122 -60 q 22 46 22 218 q 22 443 138 554 q 253 666 441 666 z m 146 336 q 146 108 237 -14 q 328 -136 458 -136 q 489 -136 528 -130 q 568 -123 603 -108 q 559 -13 494 62 q 429 136 366 136 q 332 136 314 126 q 295 115 279 96 q 284 136 316 152 q 348 168 391 168 q 482 168 552 100 q 621 33 666 -62 q 700 -27 713 33 q 726 93 726 160 q 726 270 700 376 q 673 483 602 558 q 530 634 406 634 q 280 634 213 569 q 146 504 146 336 z"},"w":{"x_min":0,"x_max":767,"ha":767,"o":"m 676 466 q 692 466 721 432 q 750 398 750 366 q 750 346 724 294 q 698 243 640 130 q 581 18 566 -18 q 490 134 415 286 q 399 240 336 121 q 274 2 267 -14 q 187 169 136 264 q 84 358 53 358 q 39 358 20 351 q 0 344 -26 326 q -5 360 37 396 q 79 433 117 433 q 157 433 225 290 q 293 147 309 119 q 316 128 354 211 q 393 294 401 316 q 392 329 383 343 q 370 359 347 366 q 362 388 381 410 q 400 433 422 433 q 446 433 466 394 q 486 356 536 248 q 586 139 608 121 q 626 144 651 200 q 676 257 676 276 q 676 305 652 339 q 629 373 599 391 q 620 424 640 445 q 660 466 676 466 z"},"-":{"x_min":0,"x_max":586,"ha":586,"o":"m 79 176 q 104 252 167 271 q 230 290 342 294 q 454 297 494 318 q 455 237 395 220 q 335 203 229 202 q 123 201 79 176 z"},"E":{"x_min":0,"x_max":849,"ha":849,"o":"m 382 651 l 398 666 l 398 651 l 755 651 q 755 612 788 554 q 822 497 832 462 q 767 520 703 578 q 633 620 550 620 l 397 620 l 397 307 q 446 368 494 406 q 543 445 614 445 q 653 445 674 423 q 695 401 695 365 q 695 332 674 294 q 677 320 677 337 q 677 378 662 390 q 648 403 622 403 q 568 403 482 314 q 397 226 397 94 q 397 12 424 -5 q 450 -22 538 -22 q 637 -22 712 24 q 787 69 830 157 q 825 110 800 54 q 776 -1 755 -47 l 173 -47 q 192 -37 211 -27 q 271 10 271 61 l 271 412 q 271 459 284 492 q 296 526 346 620 q 184 620 119 572 q 54 525 54 412 q 54 299 92 242 q 129 184 213 137 q 96 137 50 208 q 4 279 4 386 q 4 514 90 582 q 176 651 382 651 z"},"s":{"x_min":0,"x_max":330,"ha":330,"o":"m 305 436 q 288 409 280 382 q 272 355 266 333 q 234 368 206 382 q 178 396 141 396 q 104 396 89 383 q 74 370 74 348 q 74 323 149 292 q 224 260 268 229 q 311 198 311 130 q 311 50 262 24 q 212 -2 136 -2 q 59 -2 38 26 q 17 55 17 166 q 36 114 79 72 q 122 30 182 30 q 251 30 251 92 q 251 122 178 155 q 105 188 64 219 q 23 250 23 323 q 23 386 62 410 q 101 434 166 434 q 183 434 213 428 q 243 422 248 422 q 264 422 275 424 q 286 427 305 436 z"},">":{"x_min":0,"x_max":365,"ha":365,"o":"m 57 416 l 132 416 l 296 253 l 296 244 l 129 86 l 62 86 l 221 244 l 221 253 z"},"l":{"x_min":0,"x_max":220,"ha":220,"o":"m 20 494 q 20 566 60 616 q 99 667 162 667 l 252 667 q 220 609 169 606 q 118 602 118 587 l 118 78 q 118 60 132 60 q 144 60 164 74 q 185 87 210 109 q 185 63 146 28 q 108 -6 77 -6 q 47 -6 34 16 q 20 39 20 78 z"},"8":{"x_min":0,"x_max":400,"ha":400,"o":"m 204 624 q 278 624 311 584 q 344 545 344 494 q 344 446 319 422 q 294 399 230 355 q 281 325 332 279 q 382 233 382 151 q 382 75 322 34 q 263 -8 172 -8 q 14 -8 14 134 q 14 204 42 240 q 70 276 130 318 q 91 356 72 392 q 54 429 54 486 q 54 573 100 598 q 146 624 204 624 z m 100 525 q 100 477 134 434 q 168 392 212 369 q 234 382 257 399 q 280 416 280 470 q 280 523 248 558 q 217 594 175 594 q 143 594 122 579 q 100 564 100 525 z m 78 185 q 78 106 122 66 q 165 26 214 26 q 247 26 264 44 q 282 62 282 109 q 282 197 248 234 q 214 270 146 306 q 109 276 94 252 q 78 229 78 185 z"},"\\":{"x_min":0,"x_max":454,"ha":454,"o":"m 46 562 l 88 562 l 413 -98 l 371 -98 z"},"e":{"x_min":0,"x_max":414,"ha":414,"o":"m 256 432 q 295 432 320 418 q 346 404 390 360 l 147 117 q 167 84 196 74 q 226 65 263 65 q 300 65 332 82 q 365 99 391 118 q 351 57 303 26 q 255 -4 193 -4 q 104 -4 67 53 q 30 110 30 176 q 30 292 95 362 q 160 432 256 432 z m 138 140 q 173 174 208 208 q 261 265 261 294 q 261 329 244 348 q 227 368 199 368 q 164 368 144 326 q 124 285 124 228 q 124 204 127 182 q 130 161 138 140 z"},"b":{"x_min":0,"x_max":370,"ha":370,"o":"m 118 264 q 168 347 213 388 q 258 428 290 428 q 326 428 338 408 q 349 389 349 337 l 349 215 q 349 112 292 54 q 236 -5 155 -5 q 95 -5 58 35 q 22 75 22 174 l 22 494 q 22 567 60 617 q 99 667 162 667 l 252 667 q 220 609 169 606 q 118 602 118 587 z m 118 126 q 118 38 182 38 q 209 38 230 66 q 252 93 252 158 l 252 286 q 252 307 248 318 q 244 330 223 330 q 190 330 154 281 q 118 232 118 212 z"},"%":{"x_min":0,"x_max":490,"ha":490,"o":"m 133 560 q 182 560 204 526 q 225 491 225 440 q 225 379 196 354 q 167 328 125 328 q 75 328 54 365 q 32 402 32 450 q 32 500 61 530 q 90 560 133 560 z m 376 558 q 407 558 426 550 q 446 543 446 528 q 446 520 439 510 l 115 46 q 109 35 109 28 q 109 16 122 10 q 135 3 170 -11 l 103 -11 q 73 -11 52 -5 q 30 1 30 15 q 30 21 36 29 l 370 509 q 376 517 376 523 q 376 535 360 542 q 343 549 320 558 z m 371 219 q 415 219 439 184 q 463 148 463 98 q 463 40 432 14 q 401 -13 362 -13 q 313 -13 292 24 q 270 61 270 109 q 270 167 302 193 q 333 219 371 219 z m 76 450 q 76 417 88 386 q 101 354 124 354 q 150 354 166 374 q 182 395 182 439 q 182 476 170 505 q 159 534 134 534 q 108 534 92 514 q 76 493 76 450 z m 315 110 q 315 73 326 43 q 337 13 362 13 q 387 13 403 34 q 419 54 419 97 q 419 137 408 166 q 396 194 372 194 q 347 194 331 174 q 315 153 315 110 z"},"m":{"x_min":0,"x_max":681,"ha":681,"o":"m 275 -6 l 275 286 q 275 309 270 322 q 265 336 242 336 q 217 336 176 284 q 135 231 135 222 l 135 52 q 130 31 100 12 q 71 -6 42 -6 l 42 336 q 42 352 30 352 q 15 352 -27 325 q 11 373 42 400 q 74 428 92 428 q 120 428 128 398 q 135 367 135 303 l 135 266 q 174 327 218 378 q 261 428 309 428 q 346 428 358 403 q 370 378 370 328 q 370 313 370 298 q 369 284 369 269 q 406 322 452 375 q 497 428 543 428 q 575 428 588 411 q 602 394 602 353 l 602 65 q 602 41 617 41 q 634 41 669 73 q 657 40 630 17 q 603 -6 568 -6 q 510 -6 510 69 l 510 286 q 510 312 502 324 q 494 336 476 336 q 453 336 411 283 q 369 230 369 222 l 369 52 q 364 31 336 12 q 307 -6 275 -6 z"},"#":{"x_min":0,"x_max":445,"ha":445,"o":"m 142 296 l 112 237 l 80 237 l 110 296 l 50 296 l 74 328 l 126 328 l 169 414 l 104 414 l 128 446 l 185 446 l 218 512 l 250 512 l 217 446 l 287 446 l 320 512 l 352 512 l 319 446 l 376 446 l 352 414 l 303 414 l 260 328 l 322 328 l 298 296 l 244 296 l 214 237 l 182 237 l 212 296 z m 271 414 l 201 414 l 158 328 l 228 328 z"},",":{"x_min":0,"x_max":240,"ha":240,"o":"m 120 95 q 172 47 172 -5 q 172 -42 147 -74 q 122 -107 76 -132 q 91 -115 98 -98 q 106 -82 106 -67 q 106 -39 92 -24 q 78 -8 45 20 q 53 40 68 62 q 83 83 120 95 z"},"n":{"x_min":0,"x_max":446,"ha":446,"o":"m 369 63 q 369 41 384 41 q 404 41 439 74 q 419 36 388 15 q 358 -6 334 -6 q 307 -6 290 10 q 274 27 274 61 l 275 286 q 275 309 270 322 q 265 336 242 336 q 217 336 176 284 q 135 231 135 222 l 135 52 q 130 31 100 12 q 71 -6 42 -6 l 42 336 q 42 352 30 352 q 15 352 -27 325 q 11 373 42 400 q 74 428 92 428 q 120 428 128 398 q 135 367 135 303 l 135 266 q 174 327 218 378 q 261 428 309 428 q 346 428 358 403 q 370 378 370 328 q 370 313 370 298 q 369 284 369 269 q 369 240 368 208 q 368 175 368 129 q 368 103 368 84 q 368 64 369 63 z"},"h":{"x_min":0,"x_max":430,"ha":430,"o":"m 349 337 l 348 58 q 349 45 360 45 q 375 45 417 74 q 403 44 376 20 q 348 -4 314 -4 q 280 -4 266 18 q 252 39 252 70 l 252 286 q 252 307 248 318 q 244 330 223 330 q 190 330 154 281 q 118 232 118 212 l 118 94 q 118 56 90 26 q 62 -4 21 -4 l 21 494 q 21 566 60 616 q 99 667 162 667 l 252 667 q 220 609 169 606 q 118 602 118 587 l 118 264 q 168 348 214 389 q 259 430 290 430 q 326 430 338 410 q 349 390 349 337 z"},"z":{"x_min":0,"x_max":410,"ha":410,"o":"m 171 428 l 405 428 l 210 235 l 277 235 q 291 235 307 238 q 323 242 344 253 q 308 206 283 186 q 258 166 218 166 l 142 166 q 118 146 94 121 q 70 96 70 70 l 278 70 q 329 70 363 115 q 389 164 392 169 q 393 158 393 150 q 393 94 376 46 q 359 -2 308 -2 l 26 0 q 26 52 46 92 q 67 132 108 166 l 39 166 q 20 166 9 161 q -2 156 -10 150 q 13 178 44 206 q 74 235 110 235 l 174 235 l 298 358 l 129 358 q 100 358 85 350 q 70 341 70 318 q 70 295 89 283 q 114 272 122 268 q 69 268 48 286 q 27 303 27 327 q 27 383 72 406 q 116 428 171 428 z"},"B":{"x_min":0,"x_max":914,"ha":914,"o":"m 482 651 l 500 666 l 500 651 q 666 651 747 590 q 828 530 828 418 q 828 354 806 329 q 784 304 722 278 q 766 262 830 189 q 895 116 895 35 q 895 -89 765 -154 q 635 -219 468 -219 q 369 -219 296 -196 q 223 -172 209 -130 q 256 -162 290 -174 q 324 -186 372 -186 l 372 386 q 372 429 401 506 q 430 582 455 615 q 217 615 136 558 q 54 500 54 412 q 54 317 98 258 q 142 200 254 135 q 132 135 68 204 q 4 274 4 378 q 4 514 120 582 q 235 651 482 651 z m 499 -5 q 499 -62 466 -106 q 433 -151 399 -185 q 584 -185 674 -142 q 765 -99 765 27 q 765 129 718 194 q 672 259 598 278 q 675 300 702 334 q 728 368 728 418 q 728 534 670 574 q 613 615 499 615 z"},"K":{"x_min":0,"x_max":878,"ha":878,"o":"m 296 651 l 954 651 q 898 641 856 616 q 814 591 773 552 q 732 512 672 451 q 611 390 600 377 q 589 364 589 349 q 589 337 603 320 q 617 302 729 166 q 841 30 937 -79 q 1033 -188 1114 -246 q 1194 -304 1270 -304 q 1333 -304 1368 -265 q 1404 -226 1404 -171 q 1404 -145 1393 -128 q 1382 -112 1370 -96 q 1370 -82 1382 -76 q 1393 -71 1404 -71 q 1433 -71 1448 -97 q 1462 -123 1462 -162 q 1462 -229 1412 -280 q 1361 -330 1279 -330 q 1176 -330 1062 -252 q 949 -173 832 -52 q 715 70 501 309 l 501 71 q 501 12 526 -11 q 551 -34 587 -49 l 246 -49 q 318 -33 344 -2 q 371 29 371 71 l 371 546 q 371 588 344 607 q 316 626 279 626 q 171 626 112 576 q 54 525 54 421 q 54 322 98 250 q 143 177 246 146 q 118 146 61 216 q 4 286 4 395 q 4 512 90 582 q 176 651 296 651 z m 501 546 l 501 345 q 554 397 642 482 q 731 567 746 584 q 762 601 762 610 q 762 625 742 630 q 721 634 684 634 l 654 634 q 578 634 540 618 q 501 603 501 546 z"},"R":{"x_min":0,"x_max":920,"ha":920,"o":"m 897 445 q 897 345 819 288 q 741 230 623 230 q 661 163 728 52 q 795 -58 911 -174 q 1027 -289 1146 -289 q 1207 -289 1272 -253 q 1337 -217 1365 -189 q 1320 -255 1255 -292 q 1190 -330 1080 -330 q 944 -330 836 -244 q 729 -159 654 -38 q 580 82 504 245 q 636 245 704 277 q 771 309 771 411 q 771 523 708 572 q 644 622 463 622 l 463 62 q 463 27 484 -1 q 504 -29 554 -48 l 213 -48 q 271 -37 304 -6 q 338 25 338 70 l 338 394 q 338 452 360 521 q 382 590 418 622 q 201 622 128 570 q 54 518 54 428 q 54 341 102 272 q 149 203 264 155 q 139 155 72 224 q 4 292 4 394 q 4 523 105 588 q 206 653 449 653 l 465 668 l 465 652 q 704 652 800 608 q 897 564 897 445 z"},"T":{"x_min":0,"x_max":750,"ha":750,"o":"m 996 669 q 935 604 866 578 q 797 552 702 552 l 411 552 q 431 552 500 518 q 568 485 631 400 q 694 316 694 173 q 694 -20 586 -117 q 479 -214 320 -214 q 173 -214 100 -124 q 28 -35 28 63 q 28 170 86 244 q 143 317 253 317 q 326 317 378 268 q 429 220 429 146 q 429 96 396 60 q 363 24 327 13 q 346 45 356 72 q 366 99 366 138 q 366 212 330 250 q 294 289 237 289 q 182 289 126 236 q 70 182 70 88 q 70 -25 142 -103 q 214 -181 327 -181 q 446 -181 504 -82 q 562 17 562 145 q 562 348 477 449 q 392 550 262 550 q 155 550 102 503 q 49 456 2 358 q 2 496 104 573 q 207 650 345 650 l 445 650 l 524 650 l 587 650 l 637 650 l 676 650 l 707 650 l 730 650 l 749 650 l 764 650 l 775 650 q 790 650 799 650 q 808 650 812 651 q 842 651 896 656 q 951 662 996 669 z"},"P":{"x_min":0,"x_max":842,"ha":842,"o":"m 466 672 l 466 654 q 477 655 485 655 q 548 655 625 636 q 702 618 766 557 q 830 496 830 378 q 830 272 771 219 q 712 166 622 166 q 566 166 532 188 q 499 209 499 232 q 544 198 558 192 q 571 187 602 187 q 657 187 696 234 q 735 282 735 386 q 735 529 649 577 q 563 625 463 625 l 463 78 q 463 17 530 -22 q 598 -60 598 -99 q 598 -109 597 -114 q 576 -72 535 -60 q 494 -47 429 -47 q 302 -47 228 -110 q 154 -173 154 -239 q 154 -263 162 -274 q 169 -286 210 -314 q 199 -315 193 -315 q 160 -315 132 -301 q 105 -287 105 -247 q 105 -195 165 -133 q 221 -81 277 -30 q 338 31 338 78 l 338 391 q 338 436 357 512 q 376 589 422 625 q 206 625 130 569 q 54 513 54 425 q 54 323 108 252 q 162 182 269 134 q 140 134 72 200 q 4 266 4 383 q 4 523 122 588 q 239 654 446 654 z"},"|":{"x_min":0,"x_max":182,"ha":182,"o":"m 58 658 l 116 658 l 116 -268 l 58 -268 z"},"t":{"x_min":0,"x_max":266,"ha":266,"o":"m 145 429 l 227 429 q 214 400 190 394 q 167 387 145 386 l 145 83 q 145 61 162 61 q 176 61 198 74 q 219 88 249 116 q 221 63 183 28 q 145 -6 106 -6 q 76 -6 64 18 q 53 43 53 106 l 53 386 l -6 386 q -3 409 48 438 q 98 466 145 586 z"},"M":{"x_min":0,"x_max":974,"ha":974,"o":"m 406 666 q 475 666 514 616 q 553 565 572 494 q 591 423 608 364 q 624 305 638 266 q 657 330 677 395 q 718 508 782 587 q 845 666 939 666 q 983 666 1010 649 q 1036 632 1049 604 q 1029 626 1003 636 q 977 647 948 647 q 886 647 851 589 q 816 531 816 462 q 816 377 864 232 q 913 87 1004 -42 q 1094 -171 1215 -220 l 1122 -220 q 946 -220 859 -77 q 772 66 743 258 q 736 342 729 426 q 702 373 665 243 q 628 113 612 40 q 590 78 564 148 q 537 217 504 316 q 470 414 456 454 q 456 367 418 202 q 380 38 308 -92 q 236 -222 138 -222 q 77 -222 33 -165 q -11 -108 -11 -30 q 15 -62 56 -84 q 98 -105 146 -105 q 251 -105 314 5 q 378 115 404 250 q 430 385 430 462 q 430 559 410 598 q 390 637 322 637 q 199 637 127 574 q 55 511 55 403 q 55 323 86 263 q 120 216 155 170 q 155 157 134 147 q 112 137 97 137 q 66 162 36 207 q 5 252 5 354 q 5 508 110 587 q 214 666 406 666 z"},"g":{"x_min":0,"x_max":410,"ha":410,"o":"m 383 -51 q 383 -170 312 -253 q 240 -336 149 -336 q 82 -336 56 -296 q 29 -256 29 -193 q 29 -150 44 -107 q 58 -64 113 0 q 78 0 52 38 q 26 75 26 142 q 26 272 112 350 q 199 428 296 428 l 383 429 z m 289 130 q 217 59 146 -12 q 89 -92 89 -172 q 89 -229 114 -253 q 139 -277 182 -277 q 230 -277 260 -233 q 289 -189 289 -128 z m 122 218 q 122 169 138 146 q 154 123 182 123 q 206 123 234 138 q 261 152 289 177 l 289 400 q 214 400 168 344 q 122 289 122 218 z"},"j":{"x_min":0,"x_max":196,"ha":196,"o":"m 113 435 q 151 435 160 408 q 168 381 170 352 l 170 -47 q 170 -160 92 -248 q 15 -336 -64 -336 q -140 -336 -167 -270 q -194 -205 -194 -102 q -167 -181 -122 -225 q -77 -269 -6 -269 q 48 -269 63 -220 q 78 -171 78 -94 l 78 364 q 78 384 63 384 q 47 384 11 361 q 28 386 52 410 q 76 435 113 435 z m 119 651 q 144 651 161 633 q 178 615 178 584 q 178 549 148 529 q 118 509 94 509 q 73 509 62 532 q 52 554 52 584 q 52 622 70 636 q 88 651 119 651 z"},"i":{"x_min":0,"x_max":261,"ha":261,"o":"m 135 651 q 160 651 177 633 q 194 615 194 584 q 194 549 164 529 q 134 509 110 509 q 89 509 78 532 q 68 554 68 584 q 68 622 86 636 q 104 651 135 651 z m 122 433 q 153 433 166 409 q 178 385 178 352 l 178 71 q 182 43 199 43 q 211 43 227 56 q 243 69 248 73 q 224 32 200 13 q 175 -6 144 -6 q 118 -6 102 16 q 86 38 86 68 l 86 363 q 86 382 72 382 q 53 382 13 348 q 18 367 54 400 q 90 433 122 433 z"},"y":{"x_min":0,"x_max":467,"ha":467,"o":"m 378 450 q 393 450 426 408 q 459 366 459 318 q 459 294 387 166 q 315 38 279 -36 q 243 -109 243 -168 q 243 -217 272 -256 q 300 -295 347 -295 q 386 -295 408 -274 q 429 -254 451 -202 q 451 -279 406 -307 q 360 -335 300 -335 q 222 -335 186 -310 q 150 -284 150 -218 q 150 -165 182 -114 q 213 -64 270 11 q 252 51 220 121 q 189 191 151 260 q 113 329 100 332 q 88 335 78 335 q 55 335 30 324 q 5 314 -18 300 q 11 345 54 390 q 96 434 130 434 q 176 434 242 292 q 309 151 334 117 q 350 146 365 182 q 380 217 380 254 q 380 295 360 324 q 339 352 299 370 q 314 397 332 424 q 350 450 378 450 z"},"@":{"x_min":0,"x_max":656,"ha":656,"o":"m 385 31 q 358 31 342 42 q 325 54 325 77 q 325 85 328 96 l 340 140 q 282 94 238 62 q 194 31 170 31 q 147 31 136 51 q 126 71 126 98 q 126 151 154 215 q 182 279 260 328 q 339 378 480 378 l 403 95 q 398 73 437 73 q 501 73 548 132 q 594 192 594 266 q 594 356 516 411 q 438 466 344 466 q 228 466 145 383 q 62 300 62 184 q 62 68 145 -15 q 228 -98 344 -98 q 411 -98 468 -70 q 525 -41 566 10 l 597 -6 q 552 -64 486 -98 q 419 -133 342 -133 q 210 -133 118 -40 q 26 53 26 184 q 26 315 118 408 q 210 501 342 501 q 445 501 536 440 q 627 378 627 280 q 627 167 566 99 q 506 31 385 31 z m 218 174 q 218 154 227 144 q 236 134 254 134 q 290 134 350 177 l 398 355 q 327 355 272 295 q 218 235 218 174 z"},".":{"x_min":0,"x_max":240,"ha":240,"o":"m 119 96 q 137 96 164 73 q 191 50 210 21 l 127 -62 q 100 -36 82 -22 q 63 -8 35 9 q 44 25 74 60 q 105 94 119 96 z"},"p":{"x_min":0,"x_max":434,"ha":434,"o":"m 115 434 q 133 434 138 418 q 142 402 142 328 q 169 361 197 395 q 236 434 285 434 q 319 434 364 380 q 409 325 409 228 q 409 129 330 62 q 250 -5 200 -5 q 187 -5 170 6 q 154 18 142 28 l 142 -190 q 142 -227 176 -260 q 210 -293 215 -303 q 168 -279 152 -274 q 137 -269 117 -269 q 88 -269 70 -277 q 53 -285 -22 -334 q -18 -322 16 -285 q 50 -248 50 -205 l 50 320 q 50 330 45 334 q 40 338 31 338 q 13 338 -2 330 q -18 322 -26 317 q 3 356 40 395 q 77 434 115 434 z m 142 122 q 142 95 162 72 q 183 50 214 50 q 259 50 286 99 q 312 148 312 203 q 312 277 292 310 q 273 343 243 343 q 209 343 176 312 q 142 280 142 265 z"},"X":{"x_min":0,"x_max":810,"ha":810,"o":"m 314 662 q 442 662 514 588 q 585 515 602 446 l 697 601 q 687 624 683 630 q 679 637 646 651 l 897 651 q 769 630 730 584 q 692 538 612 415 q 683 133 807 -17 q 931 -167 1066 -167 q 1125 -167 1164 -143 q 1204 -119 1233 -86 q 1200 -144 1148 -172 q 1095 -199 1007 -199 q 848 -199 742 -103 q 637 -7 588 98 q 538 202 514 286 q 451 192 423 148 q 395 105 376 66 q 357 27 357 -1 q 357 -20 374 -32 q 390 -43 400 -50 l 180 -50 q 242 -26 288 20 q 335 65 390 149 q 446 233 502 319 q 464 443 440 501 q 415 559 368 598 q 322 637 246 637 q 147 637 105 564 q 63 491 63 386 q 63 303 91 256 q 119 209 188 169 q 89 169 46 232 q 4 295 4 378 q 4 493 74 578 q 145 662 314 662 z"},"*":{"x_min":0,"x_max":573,"ha":573,"o":"m 283 662 q 293 641 303 620 q 315 615 346 600 q 326 592 307 584 q 296 576 296 542 q 296 509 300 504 q 316 494 338 478 q 361 501 366 506 q 371 512 371 518 q 369 531 369 547 q 406 547 412 554 q 418 561 418 598 l 462 598 l 462 554 q 427 554 419 547 q 411 540 411 503 q 391 504 386 504 q 378 504 367 492 q 356 479 346 470 q 354 452 360 440 q 367 429 384 429 l 408 429 q 441 429 450 441 q 458 462 466 478 q 476 456 487 435 q 500 431 530 416 q 509 406 488 397 q 482 385 466 354 q 458 372 451 390 q 442 403 408 403 q 371 403 366 398 q 358 382 346 362 q 358 348 368 338 q 378 328 388 328 q 400 329 411 329 q 411 295 418 288 q 426 282 462 282 l 462 237 l 418 237 q 418 269 410 278 q 403 286 369 286 l 369 305 q 369 319 365 325 q 352 338 338 354 q 320 343 303 333 q 296 327 296 310 l 296 291 q 296 259 307 251 q 328 242 346 233 q 324 223 302 213 q 298 200 283 170 q 261 215 250 220 q 240 224 221 233 q 239 241 258 249 q 270 258 270 290 l 270 309 q 270 327 265 332 q 248 342 229 354 q 215 340 206 330 q 196 320 196 309 l 196 286 q 159 286 152 280 q 146 273 146 237 l 104 237 l 104 282 q 138 282 146 288 q 154 295 154 329 l 169 329 q 188 329 196 338 q 205 347 221 362 q 211 379 204 391 q 197 403 181 403 l 158 403 q 125 403 115 390 q 107 369 99 354 q 79 396 76 398 q 63 401 37 416 q 56 426 67 432 q 78 438 99 479 q 107 459 115 440 q 124 429 158 429 q 193 429 199 435 q 208 451 221 470 q 207 485 197 496 q 187 506 178 506 q 165 505 152 505 q 152 542 146 548 q 140 554 104 554 l 104 598 l 146 598 q 146 561 152 555 q 158 549 196 549 q 195 527 195 522 q 195 514 204 504 q 214 494 229 478 q 248 490 267 503 q 272 508 272 541 q 272 575 262 583 q 240 591 221 600 q 243 610 265 620 q 268 632 283 662 z m 221 415 q 221 387 238 370 q 256 352 281 352 q 306 352 326 369 q 346 386 346 415 q 346 443 326 462 q 307 482 282 482 q 257 482 239 463 q 221 444 221 415 z"},"Y":{"x_min":0,"x_max":419,"ha":419,"o":"m 676 682 q 767 682 820 616 q 873 551 873 456 q 828 559 786 590 q 743 622 668 622 q 560 622 495 554 q 430 486 402 400 q 374 313 374 262 l 374 70 q 374 36 402 2 q 429 -32 483 -47 l 190 -47 q 235 -29 258 -4 q 282 20 282 62 l 282 279 q 282 313 242 390 q 201 467 120 542 q 40 617 -78 651 l 241 651 q 215 641 197 630 q 179 619 179 601 q 179 600 221 549 q 263 498 299 444 q 335 389 342 350 q 368 470 454 576 q 540 682 676 682 z"},"c":{"x_min":0,"x_max":394,"ha":394,"o":"m 254 431 q 293 431 336 406 q 379 380 379 343 q 379 333 353 306 q 327 279 308 268 q 299 313 262 341 q 225 369 186 369 q 149 369 126 328 q 102 288 102 234 q 102 138 146 98 q 191 59 248 59 q 272 59 300 72 q 328 86 358 106 q 318 45 278 20 q 239 -4 169 -4 q 72 -4 45 48 q 18 100 18 176 q 18 291 84 361 q 150 431 254 431 z"},"!":{"x_min":0,"x_max":365,"ha":365,"o":"m 330 666 q 298 617 269 484 q 240 350 221 282 q 202 214 138 109 q 119 160 110 208 q 100 257 100 301 q 100 403 142 480 q 184 557 236 602 q 289 647 330 666 z m 154 8 q 160 8 187 -17 q 214 -42 242 -58 q 236 -67 197 -109 q 158 -151 146 -151 q 139 -151 116 -128 q 93 -104 58 -84 q 68 -70 106 -31 q 144 8 154 8 z"},"/":{"x_min":0,"x_max":464,"ha":464,"o":"m 376 658 l 426 658 l 88 -102 l 38 -102 z"},"[":{"x_min":0,"x_max":262,"ha":262,"o":"m 37 495 l 230 495 l 230 470 l 162 470 l 162 -140 l 230 -140 l 230 -165 l 37 -165 z"},"6":{"x_min":0,"x_max":480,"ha":480,"o":"m 334 650 q 238 602 189 526 q 140 450 122 374 q 117 342 113 310 q 144 333 179 346 q 214 358 264 358 q 356 358 406 308 q 457 257 457 176 q 457 87 398 40 q 339 -8 247 -8 q 136 -8 80 62 q 25 131 25 252 q 25 405 110 528 q 194 650 334 650 z m 122 210 q 122 141 172 84 q 221 26 281 26 q 317 26 341 50 q 365 74 365 126 q 365 204 333 262 q 301 319 238 319 q 191 319 156 288 q 122 257 122 210 z"},"r":{"x_min":0,"x_max":402,"ha":402,"o":"m 104 433 q 132 433 140 406 q 147 380 147 314 l 147 269 q 185 322 224 375 q 273 433 321 433 q 348 433 364 414 q 379 394 379 366 q 379 332 341 290 q 303 249 266 213 q 271 223 276 246 q 282 270 282 288 q 282 310 274 324 q 267 338 249 338 q 230 338 202 304 q 173 269 147 234 l 147 47 q 130 31 107 14 q 84 -2 54 -6 l 54 325 q 54 346 34 346 q 25 346 13 340 q 1 333 -14 318 q 2 351 43 392 q 84 433 104 433 z"},"2":{"x_min":0,"x_max":424,"ha":424,"o":"m 224 435 q 300 435 344 403 q 389 371 389 300 q 389 248 254 174 q 118 99 102 80 q 125 80 150 80 q 174 79 200 79 q 276 79 332 84 q 387 88 416 102 q 394 68 373 35 q 340 -2 287 -2 l 22 0 q 22 67 90 123 q 153 166 220 213 q 286 260 286 309 q 286 353 268 378 q 249 404 199 404 q 168 404 137 380 q 106 357 106 324 q 106 298 110 281 q 114 264 132 238 q 84 263 68 284 q 53 306 53 341 q 53 380 104 408 q 154 435 224 435 z"},"{":{"x_min":0,"x_max":350,"ha":350,"o":"m 298 498 q 226 459 217 416 q 208 373 202 260 q 195 148 154 106 q 188 72 195 28 q 202 -16 202 -92 q 202 -168 216 -216 q 230 -264 283 -299 q 216 -299 160 -222 q 104 -144 104 -98 l 104 -51 q 104 23 94 67 q 83 111 49 111 q 83 111 94 156 q 104 201 104 273 l 104 306 q 104 354 160 426 q 217 498 298 498 z"},"9":{"x_min":0,"x_max":448,"ha":448,"o":"m 238 431 q 333 431 378 364 q 422 297 422 190 q 422 60 362 -36 q 302 -132 225 -188 q 148 -243 94 -262 q 238 -140 284 -56 q 330 28 330 130 q 330 255 295 314 q 260 373 178 373 q 135 373 110 346 q 84 320 84 283 q 84 218 136 142 q 189 66 288 39 q 142 39 86 82 q 29 126 29 231 q 29 323 90 377 q 152 431 238 431 z"}," ":{"x_min":0,"x_max":250,"ha":250,"o":""},"I":{"x_min":0,"x_max":581,"ha":581,"o":"m 284 651 l 621 651 q 530 613 530 539 l 530 70 q 530 38 550 6 q 569 -27 621 -49 l 313 -49 q 404 -9 404 70 l 404 490 q 404 547 419 575 q 441 603 454 619 l 275 619 q 149 619 102 567 q 54 515 54 421 q 54 347 94 287 q 134 227 196 227 q 254 227 268 278 q 282 329 308 329 q 327 329 327 304 q 327 269 291 236 q 255 204 188 204 q 101 204 52 266 q 4 328 4 421 q 4 540 95 596 q 186 651 284 651 z"},"H":{"x_min":0,"x_max":912,"ha":912,"o":"m 263 651 l 495 651 q 452 633 424 606 q 397 578 397 538 l 397 263 q 470 322 538 355 q 606 388 669 399 l 669 528 q 669 576 652 600 q 635 625 574 651 l 890 651 q 828 633 814 597 q 799 561 796 528 l 797 409 q 854 400 872 386 q 889 372 897 336 q 868 362 852 370 q 835 378 798 378 l 798 62 q 798 23 824 -4 q 850 -31 890 -47 l 581 -47 q 622 -30 645 -3 q 668 24 668 62 l 668 368 q 591 353 494 267 q 397 181 397 86 q 397 21 422 -4 q 446 -29 489 -47 l 175 -47 q 214 -31 243 2 q 272 35 272 76 l 272 571 q 272 596 256 608 q 241 621 213 621 q 159 621 106 582 q 54 543 54 454 q 54 363 93 302 q 132 240 219 194 q 108 194 56 260 q 4 326 4 420 q 4 529 82 590 q 159 651 263 651 z"},"4":{"x_min":0,"x_max":480,"ha":480,"o":"m 362 428 l 362 18 q 376 18 407 19 q 438 20 465 31 q 462 3 442 -15 q 423 -33 362 -33 l 362 -154 q 362 -179 376 -194 q 391 -208 406 -218 l 228 -218 q 242 -208 256 -193 q 271 -178 271 -154 l 271 -33 l 16 -33 q 56 22 121 160 q 186 297 222 357 q 258 417 305 422 z m 270 367 q 227 315 164 178 q 100 42 84 18 l 270 18 z"},"~":{"x_min":0,"x_max":456,"ha":456,"o":"m 146 562 q 172 562 239 528 q 306 495 338 495 q 376 495 393 510 q 410 526 430 550 q 420 499 394 468 q 369 437 321 437 q 288 437 225 470 q 162 503 129 503 q 95 503 79 491 q 63 479 37 450 q 44 498 72 530 q 100 562 146 562 z"},"D":{"x_min":0,"x_max":999,"ha":999,"o":"m 968 216 q 968 -5 846 -112 q 725 -218 413 -218 l 377 -218 q 293 -218 228 -188 q 162 -158 138 -58 q 175 -125 225 -149 q 275 -173 336 -186 l 336 390 q 336 433 367 504 q 398 576 423 609 q 232 609 143 572 q 54 536 54 416 q 54 315 97 261 q 140 207 257 140 q 131 140 68 207 q 4 274 4 374 q 4 496 94 572 q 183 648 446 648 l 464 664 l 464 648 q 690 648 829 550 q 968 452 968 216 z m 467 9 q 467 -35 437 -88 q 407 -140 375 -184 q 522 -184 622 -161 q 721 -138 782 -67 q 842 4 842 142 q 842 363 761 488 q 680 612 467 612 z"},"^":{"x_min":0,"x_max":397,"ha":397,"o":"m 200 342 l 368 169 l 322 169 l 205 286 l 194 286 l 76 169 l 30 169 q 32 171 108 249 q 183 327 200 342 z"},"0":{"x_min":0,"x_max":450,"ha":450,"o":"m 244 433 q 326 433 372 374 q 419 315 419 228 q 419 137 352 66 q 286 -6 202 -6 q 122 -6 74 54 q 26 113 26 203 q 26 293 92 363 q 158 433 244 433 z m 114 262 q 114 184 137 113 q 160 42 235 42 q 277 42 303 78 q 329 114 329 170 q 329 251 302 318 q 275 386 210 386 q 166 386 140 351 q 114 316 114 262 z"},"F":{"x_min":0,"x_max":919,"ha":919,"o":"m 1004 666 q 965 616 902 587 q 840 558 772 558 l 405 558 q 486 542 582 467 q 679 392 692 273 q 757 273 814 302 q 870 332 898 400 l 839 150 q 824 193 810 237 q 775 225 746 218 q 716 211 698 207 q 698 4 591 -108 q 484 -220 322 -220 q 171 -220 112 -151 q 54 -82 54 19 q 54 145 140 206 q 227 266 355 266 l 561 266 q 535 408 455 476 q 375 545 263 545 q 164 545 106 498 q 48 451 4 358 q 4 486 108 568 q 213 650 346 650 q 424 650 556 649 q 687 648 737 648 q 853 648 916 652 q 978 655 1004 666 z m 96 44 q 96 -43 167 -115 q 238 -187 330 -187 q 450 -187 507 -88 q 564 10 564 203 l 271 203 q 199 203 148 159 q 96 115 96 44 z"},"`":{"x_min":0,"x_max":202,"ha":202,"o":"m 170 466 q 155 466 86 514 q 18 562 18 598 q 18 614 39 614 q 74 614 128 540 q 149 503 170 466 z"},"k":{"x_min":0,"x_max":428,"ha":428,"o":"m 118 269 q 181 339 231 384 q 281 429 327 429 l 419 429 q 352 409 282 367 q 211 325 165 283 q 235 270 280 166 q 325 62 373 62 q 383 62 396 68 q 410 73 430 87 q 416 56 382 26 q 349 -4 316 -4 q 268 -4 222 103 q 175 210 118 216 l 118 94 q 118 56 90 26 q 62 -4 21 -4 l 21 494 q 21 566 60 616 q 99 667 162 667 l 252 667 q 220 609 169 606 q 118 602 118 587 z"},"u":{"x_min":0,"x_max":490,"ha":490,"o":"m 94 434 q 127 434 135 409 q 143 384 145 358 l 145 170 l 145 143 q 145 112 152 96 q 160 79 187 79 q 212 79 249 118 q 286 156 286 186 l 286 358 q 286 389 312 412 q 339 434 378 434 l 378 78 q 381 74 386 70 q 390 66 401 66 q 415 66 434 76 q 454 87 482 114 q 460 79 418 36 q 375 -6 337 -6 q 309 -6 298 10 q 286 27 286 59 l 286 103 q 239 53 200 24 q 161 -6 118 -6 q 82 -6 68 28 q 53 62 53 111 l 53 343 q 53 362 49 371 q 45 380 32 380 q 16 380 -13 362 q 10 399 37 416 q 64 434 94 434 z"},"]":{"x_min":0,"x_max":272,"ha":272,"o":"m 37 495 l 230 495 l 230 -165 l 37 -165 l 37 -140 l 104 -140 l 104 470 l 37 470 z"},"U":{"x_min":0,"x_max":922,"ha":922,"o":"m 356 651 l 590 651 q 470 525 418 420 q 365 315 365 198 q 365 46 417 6 q 469 -35 567 -35 q 628 -35 682 5 q 737 45 737 98 l 737 592 q 737 620 725 630 q 713 641 686 651 l 879 651 q 906 651 930 636 q 954 621 968 597 q 953 606 936 616 q 920 626 904 626 q 893 626 878 614 q 862 603 862 575 l 862 65 q 862 33 886 2 q 910 -29 959 -47 l 737 -47 l 737 4 q 700 -48 633 -96 q 566 -145 482 -145 q 345 -145 290 -64 q 234 17 234 157 q 234 270 276 360 q 318 450 374 512 q 431 575 490 621 l 314 621 q 188 621 126 558 q 63 496 63 399 q 63 333 90 276 q 118 220 176 190 q 98 199 51 256 q 4 314 4 391 q 4 484 86 568 q 168 651 356 651 z"},"o":{"x_min":0,"x_max":450,"ha":450,"o":"m 244 433 q 326 433 372 374 q 419 315 419 228 q 419 136 351 65 q 283 -6 199 -6 q 120 -6 73 54 q 26 113 26 203 q 26 293 92 363 q 158 433 244 433 z m 114 262 q 114 180 136 111 q 157 42 232 42 q 275 42 302 78 q 329 114 329 170 q 329 251 302 318 q 275 386 210 386 q 166 386 140 351 q 114 316 114 262 z"},"N":{"x_min":0,"x_max":822,"ha":822,"o":"m 314 659 q 423 659 457 619 q 491 579 553 491 l 736 108 l 736 542 q 736 586 707 610 q 678 635 638 651 l 890 651 q 816 635 790 608 q 764 581 764 542 l 764 55 q 835 -105 890 -156 q 945 -206 1031 -206 q 1056 -206 1092 -190 q 1127 -173 1156 -148 q 1129 -186 1094 -208 q 1059 -231 990 -231 q 843 -231 748 -100 q 653 32 540 273 q 427 514 363 572 l 363 62 q 363 22 392 -4 q 420 -29 463 -47 l 213 -47 q 286 -31 310 -6 q 335 20 335 62 l 335 595 q 313 617 294 626 q 274 634 238 634 q 141 634 98 578 q 54 523 54 437 q 54 332 99 274 q 144 217 226 178 q 113 178 58 244 q 4 310 4 406 q 4 541 84 600 q 164 659 314 659 z"},"+":{"x_min":0,"x_max":563,"ha":563,"o":"m 282 400 q 307 400 324 406 q 340 413 362 432 q 349 400 324 384 q 298 369 298 318 q 298 277 304 271 q 310 265 356 265 q 399 265 412 290 q 425 316 465 330 q 445 305 438 290 q 431 274 431 250 q 431 225 437 210 q 443 194 465 168 q 425 181 412 208 q 400 234 356 234 q 313 234 306 230 q 298 226 298 197 l 298 176 q 298 132 325 122 q 352 112 362 74 q 346 87 330 94 q 315 101 282 101 q 253 101 238 96 q 222 91 202 72 q 214 110 241 121 q 268 132 268 176 q 268 219 264 226 q 260 234 232 234 l 214 234 q 168 234 156 210 q 143 185 104 169 q 124 194 130 210 q 136 225 136 250 q 136 278 125 298 q 111 318 103 330 q 145 317 156 291 q 168 265 214 265 q 256 265 262 271 q 268 277 268 318 q 268 367 240 382 q 213 398 202 432 q 222 413 239 406 q 256 400 282 400 z m 499 230 q 478 230 478 251 q 478 271 499 271 q 520 271 520 250 q 520 230 499 230 z m 283 446 q 262 446 262 467 q 262 487 283 487 q 304 487 304 466 q 304 446 283 446 z m 283 14 q 262 14 262 35 q 262 55 283 55 q 304 55 304 34 q 304 14 283 14 z m 67 230 q 46 230 46 251 q 46 271 67 271 q 88 271 88 250 q 88 230 67 230 z m 282 272 q 261 272 261 250 q 261 230 282 230 q 303 230 303 252 q 303 272 282 272 z"},"G":{"x_min":0,"x_max":846,"ha":846,"o":"m 429 666 q 481 666 584 647 q 686 628 714 628 q 683 568 674 542 q 665 515 659 475 q 627 567 557 602 q 487 637 378 637 q 245 637 190 550 q 136 463 136 328 q 136 141 214 2 q 293 -138 446 -138 q 536 -138 592 -86 q 647 -35 647 53 q 647 140 606 159 q 565 178 454 178 q 403 178 359 168 q 315 158 282 111 q 282 159 334 210 q 387 262 462 262 q 488 262 516 262 q 544 261 573 261 q 672 261 739 266 q 806 271 842 286 q 828 248 788 209 q 747 170 674 170 q 693 148 700 128 q 707 107 707 62 q 707 -63 628 -114 q 548 -164 420 -164 q 206 -164 110 -49 q 13 66 13 220 q 13 424 122 545 q 232 666 429 666 z"},"q":{"x_min":0,"x_max":426,"ha":426,"o":"m 383 -168 q 383 -185 412 -212 q 440 -240 456 -268 q 434 -247 414 -241 q 393 -235 362 -235 q 326 -235 298 -249 q 271 -263 225 -297 q 225 -290 257 -250 q 289 -211 289 -193 l 289 130 q 228 69 186 32 q 144 -5 113 -5 q 79 -5 52 35 q 26 75 26 142 q 26 278 101 353 q 176 428 296 428 l 383 428 z m 122 218 q 122 169 138 146 q 154 123 182 123 q 206 123 234 138 q 261 152 289 177 l 289 400 q 214 400 168 344 q 122 289 122 218 z"},"d":{"x_min":0,"x_max":458,"ha":458,"o":"m 383 58 q 384 45 396 45 q 405 45 418 52 q 430 58 458 74 q 446 48 415 22 q 384 -3 356 -6 q 340 -6 314 17 q 289 40 289 76 l 289 130 q 229 70 186 32 q 144 -6 113 -6 q 79 -6 52 34 q 26 75 26 142 q 26 278 100 353 q 174 428 289 428 l 289 496 q 289 568 327 618 q 365 667 430 667 l 519 667 q 487 609 435 606 q 383 602 383 587 z m 122 218 q 122 169 138 146 q 154 123 182 123 q 206 123 234 138 q 261 152 289 177 l 289 400 q 214 400 168 344 q 122 289 122 218 z"},"1":{"x_min":0,"x_max":280,"ha":280,"o":"m 204 431 l 204 64 q 204 37 211 26 q 218 16 242 0 l 71 0 q 85 11 99 23 q 112 38 112 64 l 112 327 q 112 355 86 355 q 67 355 40 337 q 75 377 106 404 q 138 431 204 431 z"},"5":{"x_min":0,"x_max":464,"ha":464,"o":"m 97 168 q 127 182 152 192 q 178 202 222 202 q 317 202 383 146 q 449 89 449 -8 q 449 -88 398 -152 q 346 -217 222 -217 q 114 -217 68 -164 q 21 -111 21 -3 q 72 -98 131 -142 q 190 -186 245 -186 q 303 -186 330 -144 q 357 -103 357 -34 q 357 76 308 119 q 259 162 189 162 q 150 162 120 149 q 90 136 46 106 l 156 428 q 174 428 193 428 q 212 427 231 427 q 301 427 345 432 q 389 437 422 454 q 399 373 338 356 q 277 338 160 338 q 152 338 128 269 q 105 200 97 168 z"}}}
